/* XPM */
static char *flsdk[] = {
/* columns rows colors chars-per-pixel */
"48 48 125 2 ",
"   c #020204",
".  c #05090F",
"X  c #070B13",
"o  c #0A0E15",
"O  c #0C1119",
"+  c #0E1421",
"@  c #121C2C",
"#  c #121E31",
"$  c #182437",
"%  c #18263E",
"&  c #2F343D",
"*  c #21314C",
"=  c #23385C",
"-  c #2B436D",
";  c #30466B",
":  c #2D4776",
">  c #2F4A7A",
",  c #334C77",
"<  c #304D7E",
"1  c #434B57",
"2  c #464F5D",
"3  c #555E6B",
"4  c #314E80",
"5  c #355183",
"6  c #37578E",
"7  c #38578E",
"8  c #3D598A",
"9  c #3B5D97",
"0  c #3D5E98",
"q  c #3F6099",
"w  c #3F64A5",
"e  c #426299",
"r  c #48679C",
"t  c #516E9F",
"y  c #4668A4",
"u  c #4F6DA2",
"i  c #456BAD",
"p  c #5773A3",
"a  c #5B76A4",
"s  c #496FB0",
"d  c #4C71B1",
"f  c #4B74BC",
"g  c #4F78BD",
"h  c #5076B7",
"j  c #4B77C4",
"k  c #4E79C6",
"l  c #517CC6",
"z  c #537EC8",
"x  c #6F86AD",
"c  c #7489AF",
"v  c #7E90AD",
"b  c #7B8FB2",
"n  c #7D91B3",
"m  c #5780C6",
"M  c #5881C6",
"N  c #5681C9",
"B  c #5C85CB",
"V  c #5F88CC",
"C  c #638CCD",
"Z  c #688FCF",
"A  c #6991CF",
"S  c #7391C1",
"D  c #7596CE",
"F  c #7A99CE",
"G  c #688FD0",
"H  c #6D94D1",
"J  c #7097D2",
"K  c #7399D3",
"L  c #7A9DD6",
"P  c #7E9FD8",
"I  c #7DA0D7",
"U  c #7FA1D8",
"Y  c #8194B5",
"T  c #8E9DB3",
"R  c #899AB8",
"E  c #99A7BF",
"W  c #819DCE",
"Q  c #8AA4CF",
"!  c #9CACC6",
"~  c #97AAC9",
"^  c #81A2D7",
"/  c #8FABD6",
"(  c #83A4D9",
")  c #88A7DB",
"_  c #8CAADD",
"`  c #97ADD1",
"'  c #91ADDF",
"]  c #93B0DC",
"[  c #A2AEC3",
"{  c #A0B2CC",
"}  c #B4BCCB",
"|  c #A3B5D3",
" . c #ACBBD4",
".. c #B1BED5",
"X. c #95B1E1",
"o. c #9DB6E3",
"O. c #A4BBE5",
"+. c #A8BEE8",
"@. c #BFC5CF",
"#. c #B6C2D5",
"$. c #BDC4D1",
"%. c #ACC3E5",
"&. c #B1C6E5",
"*. c #B5C9E7",
"=. c #B2C5EC",
"-. c #B7CAE8",
";. c #B9CBEE",
":. c #BECEF0",
">. c #C4C4C4",
",. c #CBCBCB",
"<. c #C1CAD7",
"1. c #C5CCD8",
"2. c #CDD1D9",
"3. c #D5D5D5",
"4. c #D5D6D9",
"5. c #D7D8DB",
"6. c #DBDBDB",
"7. c #C3D2F2",
"8. c #C9D6F4",
"9. c #D3DDF8",
"0. c #D7E1FA",
"q. c #DDE5FC",
"w. c #E0E7FD",
"e. c #E3E9FE",
"r. c None",
/* pixels */
"r.r.r.r.r.r.r.r.r.r.r.r.r.r.r.r.r.r.r.r.r.r.r.r.r.r.r.r.r.r.r.r.r.r.r.r.r.r.r.r.r.r.r.r.r.r.r.r.",
"r.r.r.r.r.r.r.r.r.r.r.r.r.r.r.r.r.r.r.r.r.r.r.r.r.r.r.r.r.r.r.r.r.r.r.r.r.r.r.r.r.r.r.r.r.r.r.r.",
"r.r.r.r.r.r.r.r.-.-.*.%.&.%.%.%.%.%.&.%.%.%.%.%.*.%.%.%.%.%.&.%.%.%.%.%.&.%.&.T 3 r.r.r.r.r.r.r.",
"r.r.r.r.r.r.*.O.) L K K K K L K K L K K L K K K K K K L L K K L I K K K L L L _ %.{ r.r.r.r.r.r.",
"r.r.r.r.r.%.( K K K K K K K K K K K K K K K K K K K K K K K K K K K K K K K K K K U %.1 r.r.r.r.",
"r.r.r.r.O.I K K K K K K K K K K K K K K K K K K K K K K K K K K K K K K K K K K K K L O.& r.r.r.",
"r.r.r.%.I J K K J K K K J K K K K K K K K K K K K K K K J K K K K J K K K K K J K K K L ~ r.r.r.",
"r.r.r./ J J J K K K J J J J J J K L K J J J J J K K I J K K J J K J J K J K J J K K J J ] 2 r.r.",
"r.r.O.K J J J J J J J K J J J J J I J J J J J K J J I J J J J J J J J J K J J J J J J J K v r.r.",
"r.r.] J J J H J H J K J J J A J J U J J J J H H J J I J J J H J J J H J K J J J A J J J J / r.r.",
"r.r.( J H H J J J J J J J J J J H I J H J H H H H J I J J J J H J H H H K H H H J K J J J ( r.r.",
"r.r.^ H J H A J J J L L K K K K I U K I K I L L I I _ U U U U U U ( U U ( L K K K K J A J ^ r.r.",
"r.r.I H H A A A A J K K A J H H H I H H H A H H H K O.L H L ] L H H H H K H H K K A J A J L r.r.",
"r.r.I H H A A A A A K K A A A H H L A H H H A H H U e.] H U e._ G H A H L A K U J A H A A I r.r.",
"r.r.L A A H A A A A K J A A A A A L H H H A H H A U e.] J U e._ A A A A K K U A A A A A A L r.r.",
"r.r.L A A A A A J A L L K K U K J U L K K K L U K _ e.o.I ] e.o.P I L L ) ( J J G H A A A L r.r.",
"r.r.K A A Z Z G Z Z H ^ :.e.e.w.;.I K A H =.q.e.9.o.e.] A ) e._ Z Z +.0.+.Z G G Z Z Z Z A K r.r.",
"r.r.K C Z Z Z G Z Z H 8.9.) ^ X.q.;.K A ;.e.o.I o.q.e.' A U e._ Z O.e.o.K Z Z Z Z Z Z Z A K r.r.",
"r.r.K Z C Z G G Z Z H e.=.C C Z X.O.K L e.O.C A A O.e.' A ) e.) O.e.O.Z K C Z Z A C C Z C K r.r.",
"r.r.J Z C C C C C C H 7.e.:.X.K G J K X.e.I C C C L e._ C U e.:.e.;.C C L Z C C C Z C C A K r.r.",
"r.r.J C C C C C C C Z K =.q.e.e.8._ L o.e.K C C C J e._ C ) e.e.9.w.L C K C C C C C C C C J r.r.",
"r.r.H C C C C C C C Z Z C C ^ O.0.q.U X.e.L C C C J e.' C U w.%.H 0.8.C K C C C C C C C C J r.r.",
"r.r.A C C C C C C C K 7._ C C C ' e.X.L e.o.C C V ' e._ C U e.) C ' e.o.L C C C C C C V C A r.r.",
"r.r.Z C V C V V V V Z 9.9.K C Z :.q.L V :.0.U C L 0.w._ C ] e.U V C :.w.) C V C V V V C V A r.r.",
"r.r.Z V V V C V V V G ( 9.w.q.e.0._ H C G 7.e.q.w.%.w._ J U w.( V C H q.8.V V V V C V V C A r.r.",
"r.r.Z V V V C B C G G G G ( ' ) H H P H H H ) X.U J _ ( L L ( L K F K P ( H Z C V V V V V Z r.r.",
"r.r.Z B C B B V V V V C B V V V V V H V V V V V V V K V V V V V V V B V Z V B V V V V V V C O r.",
"r.r.C B B B B B B V V V V B B B B V Z V B B B B B G H V B B B V B B V B C B V B B B B B B C O r.",
"r.r.C B B B B B B V B V B V B V V V G V V B V V C V C V B B V B V A C B V B B B B V B B B C O r.",
"r.r.B B B B B B B B B B B V z B z V G z B B B V V V C B B B Z ..5.6.6.<.F B B B B B B B B B O r.",
"r.r.B B B B B B B B z B B z z V B z G V B z V B B B C B B D 4.6.6.6.6.6.6.` B B N B B B B B O r.",
"r.r.B B N N B N z B B B W |  . . . ... . . ... . . . . .! 2.6.6.6.6.6.6.6.6.S N B B B z B B O r.",
"r.r.B B B N N B N B N | 6.6.6.6.6.6.6.6.6.6.6.6.6.6.6.6.>.6.6.6.6.E a a a a t p B B B z B B o r.",
"r.r.M z N N N N N z B 6.4.F Q 6.6.6.6.6.6.6.6.6.6.6.6.3.,.6.6.6.6.c e r e e e e d z z B z B O r.",
"r.r.M N N N N N N N B 6.1.N B 6.6.6.6.6.6.6.6.6.6.6.6.3.,.6.6.6.6.c e e e e e e e d N N m M O r.",
"r.r.M z z N N N N z N 2.6.#.<.6.6.6.6.6.6.6.6.6.6.6.6.5.>.6.6.6.6.b e e e e e e e e d z N z O r.",
"r.r.l m z m z z z z z A $.6.6.6.6.6.6.6.6.6.6.6.6.6.6.6.>.6.6.6.6.5.<.>.$.<.x e e q e s z l o r.",
"r.r.l z z z z z z z z z g u p p p p a a p p a p p p p p p R 6.6.6.6.6.6.5.} e 0 0 e 0 e s l o r.",
"r.r.h z l z z z z z z l l g e 0 q 0 e e 0 e 0 0 e q q q 0 e Y 3.6.6.6.6.[ r 0 0 q q 0 0 0 u r.r.",
"r.r.8 l l l l l l l l l l l j e q 0 e 0 0 0 0 0 q q 0 0 0 0 0 r c R Y t 0 0 0 0 0 0 e 0 0 ; r.r.",
"r.r.* g k z z k l l l l k l k f 0 0 0 0 0 0 0 0 0 0 9 0 0 0 0 9 0 0 0 0 0 0 9 0 0 0 0 0 8 $ r.r.",
"r.r.r.e k k k k k k k l k l k l f 0 9 0 9 9 9 0 0 0 9 0 0 9 9 9 0 9 0 9 9 9 0 9 0 0 0 0 ,   r.r.",
"r.r.r.@ i k k k k k k k k k k k k j 0 9 9 9 9 9 9 9 9 9 9 9 9 9 9 9 9 9 9 9 9 9 9 9 9 5 + r.r.r.",
"r.r.r.r.% y f k k k k k k k k k j j f 9 9 9 9 9 9 9 9 9 9 9 9 9 9 9 9 9 9 9 9 9 9 7 < # r.r.r.r.",
"r.r.r.r.r.@ 6 i j j j k k j k j k k j j 9 9 9 9 9 9 9 9 9 9 9 9 9 9 9 9 0 9 9 6 5 - + r.r.r.r.r.",
"r.r.r.r.r.r.r.% : 0 w w w w w w w w w w 0 4 < < 4 4 4 4 < < < < < < < < < < : = #   r.r.r.r.r.r.",
"r.r.r.r.r.r.r.r.r.r.X X X X X X X X X X X X . . . . . . . . . . . . . . . . r.r.r.r.r.r.r.r.r.r.",
"r.r.r.r.r.r.r.r.r.r.r.r.r.r.r.r.r.r.r.r.r.r.r.r.r.r.r.r.r.r.r.r.r.r.r.r.r.r.r.r.r.r.r.r.r.r.r.r."
};
